<svg width="47" height="44" viewBox="0 0 47 44" fill="none" xmlns="http://www.w3.org/2000/svg">
<path d="M38.9219 1.375L34.1484 8.55938L29.3383 15.8813H17.7719L17.8086 15.8125L22.3984 8.90313L27.3922 1.375H38.9219Z" fill="url(#paint0_linear)"/>
<path opacity="0.2" d="M37.6 1.375L28.7141 14.7812H19.7547L28.7141 1.375H27.4289L22.3984 8.90312L17.7719 15.8125H29.3016L34.1484 8.55937L38.9586 1.375H37.6V1.375Z" fill="#424242"/>
<path d="M30.1094 11.6875H16.8906C15.275 11.6875 13.9531 12.925 13.9531 14.4375V19.9375C13.9531 20.6938 14.6141 21.3125 15.4219 21.3125C16.2297 21.3125 17.2578 20.6938 17.2578 19.9375V16.5C17.2578 16.1219 17.5883 15.8125 17.9922 15.8125H29.0078C29.4117 15.8125 29.7422 16.1219 29.7422 16.5V19.9031C29.7422 20.5906 30.5867 21.175 31.2844 21.2781C31.3945 21.2781 31.468 21.3125 31.5781 21.3125C32.3859 21.3125 33.0469 20.6938 33.0469 19.9375V14.4375C33.0469 12.925 31.725 11.6875 30.1094 11.6875Z" fill="#FDD835"/>
<path opacity="0.2" d="M30.1094 12.375C31.3211 12.375 32.3125 13.3031 32.3125 14.4375V19.9375C32.3125 20.3156 31.982 20.625 31.5781 20.625H31.4312C30.9906 20.5562 30.4766 20.1781 30.4766 19.9031V16.5C30.4766 15.7437 29.8156 15.125 29.0078 15.125H17.9922C17.1844 15.125 16.5234 15.7437 16.5234 16.5V19.9375C16.5234 20.2469 15.9359 20.625 15.4219 20.625C15.018 20.625 14.6875 20.3156 14.6875 19.9375V14.4375C14.6875 13.3031 15.6789 12.375 16.8906 12.375H30.1094ZM30.1094 11.6875H16.8906C15.275 11.6875 13.9531 12.925 13.9531 14.4375V19.9375C13.9531 20.6938 14.6141 21.3125 15.4219 21.3125C16.2297 21.3125 17.2578 20.6938 17.2578 19.9375V16.5C17.2578 16.1219 17.5883 15.8125 17.9922 15.8125H29.0078C29.4117 15.8125 29.7422 16.1219 29.7422 16.5V19.9031C29.7422 20.5906 30.5867 21.175 31.2844 21.2781C31.3945 21.2781 31.468 21.3125 31.5781 21.3125C32.3859 21.3125 33.0469 20.6938 33.0469 19.9375V14.4375C33.0469 12.925 31.725 11.6875 30.1094 11.6875Z" fill="#424242"/>
<path d="M29.3383 15.8813H17.7719L8.18828 1.375H19.7547L29.3383 15.8813Z" fill="url(#paint1_linear)"/>
<path opacity="0.2" d="M19.6813 1.375H18.3594L27.3555 14.7812H18.3961L9.43672 1.375H8.15157L17.7719 15.8125H29.3016L19.6813 1.375Z" fill="#424242"/>
<path d="M23.5 42.625C31.2061 42.625 37.4531 36.7767 37.4531 29.5625C37.4531 22.3483 31.2061 16.5 23.5 16.5C15.7939 16.5 9.54688 22.3483 9.54688 29.5625C9.54688 36.7767 15.7939 42.625 23.5 42.625Z" fill="url(#paint2_radial)"/>
<path opacity="0.2" d="M23.5 17.5312C30.5867 17.5312 36.3516 22.9281 36.3516 29.5625C36.3516 36.1969 30.5867 41.5938 23.5 41.5938C16.4133 41.5938 10.6484 36.1969 10.6484 29.5625C10.6484 22.9281 16.4133 17.5312 23.5 17.5312ZM23.5 16.5C15.7891 16.5 9.54688 22.3438 9.54688 29.5625C9.54688 36.7812 15.7891 42.625 23.5 42.625C31.2109 42.625 37.4531 36.7812 37.4531 29.5625C37.4531 22.3438 31.2109 16.5 23.5 16.5Z" fill="#424242"/>
<path d="M19.2406 24.8187V27.1562L22.8391 26.125V36.8156H25.85V22.6187L19.2406 24.8187Z" fill="#FFA000"/>
<defs>
<linearGradient id="paint0_linear" x1="32.0114" y1="0.836688" x2="27.1084" y2="12.7309" gradientUnits="userSpaceOnUse">
<stop offset="0.136" stop-color="#1E88E5"/>
<stop offset="0.938" stop-color="#1565C0"/>
</linearGradient>
<linearGradient id="paint1_linear" x1="15.7145" y1="2.25225" x2="21.3997" y2="15.8184" gradientUnits="userSpaceOnUse">
<stop offset="0.136" stop-color="#64B5F6"/>
<stop offset="0.946" stop-color="#2196F3"/>
</linearGradient>
<radialGradient id="paint2_radial" cx="0" cy="0" r="1" gradientUnits="userSpaceOnUse" gradientTransform="translate(15.7891 19.7656) scale(26.6494 24.9483)">
<stop offset="0.297" stop-color="#FFEB3B"/>
<stop offset="0.954" stop-color="#FBC02D"/>
</radialGradient>
</defs>
</svg>
