<svg width="47" height="43" viewBox="0 0 47 43" fill="none" xmlns="http://www.w3.org/2000/svg">
<path d="M38.9219 1.34375L34.1484 8.36484L29.3383 15.5203H17.7719L17.8086 15.4531L22.3984 8.70078L27.3922 1.34375H38.9219Z" fill="url(#paint0_linear)"/>
<path opacity="0.2" d="M37.6 1.34375L28.7141 14.4453H19.7547L28.7141 1.34375H27.4289L22.3984 8.70078L17.7719 15.4531H29.3016L34.1484 8.36484L38.9586 1.34375H37.6V1.34375Z" fill="#424242"/>
<path d="M30.1094 11.4219H16.8906C15.275 11.4219 13.9531 12.6312 13.9531 14.1094V19.4844C13.9531 20.2234 14.6141 20.8281 15.4219 20.8281C16.2297 20.8281 17.2578 20.2234 17.2578 19.4844V16.125C17.2578 15.7555 17.5883 15.4531 17.9922 15.4531H29.0078C29.4117 15.4531 29.7422 15.7555 29.7422 16.125V19.4508C29.7422 20.1227 30.5867 20.6938 31.2844 20.7945C31.3945 20.7945 31.468 20.8281 31.5781 20.8281C32.3859 20.8281 33.0469 20.2234 33.0469 19.4844V14.1094C33.0469 12.6312 31.725 11.4219 30.1094 11.4219Z" fill="#FF9800"/>
<path opacity="0.2" d="M30.1094 12.0938C31.3211 12.0938 32.3125 13.0008 32.3125 14.1094V19.4844C32.3125 19.8539 31.982 20.1562 31.5781 20.1562H31.4312C30.9906 20.0891 30.4766 19.7195 30.4766 19.4508V16.125C30.4766 15.3859 29.8156 14.7812 29.0078 14.7812H17.9922C17.1844 14.7812 16.5234 15.3859 16.5234 16.125V19.4844C16.5234 19.7867 15.9359 20.1562 15.4219 20.1562C15.018 20.1562 14.6875 19.8539 14.6875 19.4844V14.1094C14.6875 13.0008 15.6789 12.0938 16.8906 12.0938H30.1094ZM30.1094 11.4219H16.8906C15.275 11.4219 13.9531 12.6312 13.9531 14.1094V19.4844C13.9531 20.2234 14.6141 20.8281 15.4219 20.8281C16.2297 20.8281 17.2578 20.2234 17.2578 19.4844V16.125C17.2578 15.7555 17.5883 15.4531 17.9922 15.4531H29.0078C29.4117 15.4531 29.7422 15.7555 29.7422 16.125V19.4508C29.7422 20.1227 30.5867 20.6938 31.2844 20.7945C31.3945 20.7945 31.468 20.8281 31.5781 20.8281C32.3859 20.8281 33.0469 20.2234 33.0469 19.4844V14.1094C33.0469 12.6312 31.725 11.4219 30.1094 11.4219Z" fill="#424242"/>
<path d="M23.5367 41.6562C31.2428 41.6562 37.4898 35.9409 37.4898 28.8906C37.4898 21.8404 31.2428 16.125 23.5367 16.125C15.8306 16.125 9.58359 21.8404 9.58359 28.8906C9.58359 35.9409 15.8306 41.6562 23.5367 41.6562Z" fill="url(#paint1_radial)"/>
<path d="M28.7508 31.9812C28.7508 29.193 26.1805 28.6555 26.1805 28.6555C26.1805 28.6555 28.4937 27.782 28.4937 25.4977C28.4937 25.4977 28.7508 21.5 23.2797 21.5C19.7547 21.5 18.1023 23.482 18.1023 25.3633H21.1867C21.1867 25.3633 21.1867 23.7844 23.3531 23.7844C25.4828 23.7844 25.4094 25.632 25.4094 25.632C25.4094 25.632 25.5195 27.6141 23.2797 27.6141H21.407V29.8313H23.3164C25.6297 29.8313 25.6297 31.8133 25.6297 31.8133C25.6297 31.8133 25.8867 33.8961 23.3898 33.8961C21.0398 33.8961 21.0031 32.1492 21.0031 32.1492H17.9187C17.9187 34.2656 19.6445 36.2141 23.3164 36.2141C28.8977 36.1805 28.7508 32.1828 28.7508 31.9812Z" fill="#D84315"/>
<path d="M29.3383 15.5203H17.7719L8.18828 1.34375H19.7547L29.3383 15.5203Z" fill="url(#paint2_linear)"/>
<path opacity="0.2" d="M19.6813 1.34375H18.3594L27.3555 14.4453H18.3961L9.43672 1.34375H8.15157L17.7719 15.4531H29.3016L19.6813 1.34375Z" fill="#424242"/>
<path opacity="0.2" d="M23.5 17.1328C30.5867 17.1328 36.3516 22.407 36.3516 28.8906C36.3516 35.3742 30.5867 40.6484 23.5 40.6484C16.4133 40.6484 10.6484 35.3742 10.6484 28.8906C10.6484 22.407 16.4133 17.1328 23.5 17.1328ZM23.5 16.125C15.7891 16.125 9.54688 21.8359 9.54688 28.8906C9.54688 35.9453 15.7891 41.6562 23.5 41.6562C31.2109 41.6562 37.4531 35.9453 37.4531 28.8906C37.4531 21.8359 31.2109 16.125 23.5 16.125Z" fill="#424242"/>
<defs>
<linearGradient id="paint0_linear" x1="34.2395" y1="0.965821" x2="26.6559" y2="12.4813" gradientUnits="userSpaceOnUse">
<stop offset="0.136" stop-color="#1E88E5"/>
<stop offset="0.938" stop-color="#1565C0"/>
</linearGradient>
<radialGradient id="paint1_radial" cx="0" cy="0" r="1" gradientUnits="userSpaceOnUse" gradientTransform="translate(17.4609 22.5199) scale(27.1036 24.7969)">
<stop offset="0.267" stop-color="#FFA726"/>
<stop offset="1" stop-color="#FB8C00"/>
</radialGradient>
<linearGradient id="paint2_linear" x1="15.3418" y1="1.70421" x2="21.2602" y2="15.6078" gradientUnits="userSpaceOnUse">
<stop offset="0.136" stop-color="#64B5F6"/>
<stop offset="0.946" stop-color="#2196F3"/>
</linearGradient>
</defs>
</svg>
