<svg width="33" height="35" viewBox="0 0 33 35" fill="none" xmlns="http://www.w3.org/2000/svg">
<path d="M16.4995 1.09375C7.95664 1.09375 1.03076 8.43937 1.03076 17.5C1.03076 26.5606 7.95664 33.9062 16.4995 33.9062C25.0429 33.9062 31.9688 26.5606 31.9688 17.5C31.9688 8.43937 25.0429 1.09375 16.4995 1.09375ZM22.1719 11.2186C21.3206 12.163 20.4549 13.5182 19.5752 15.2852C18.6891 17.0687 18.0132 18.961 17.5627 20.9196C17.1012 22.9086 16.8744 24.6859 16.8816 26.2505H13.9729C14.0235 23.7984 14.4726 21.2964 15.3203 18.7469C16.1674 16.1973 17.3003 13.918 18.7162 11.9087H11.8589V8.75H22.1719V11.2186Z" fill="#50A9DC"/>
</svg>
