<svg width="33" height="35" viewBox="0 0 33 35" fill="none" xmlns="http://www.w3.org/2000/svg">
<path d="M16.6955 17.249C16.1262 17.249 15.6452 17.4957 15.2523 17.99C14.8583 18.4844 14.6619 19.2161 14.6619 20.1819C14.6619 21.25 14.8836 22.0736 15.3255 22.6543C15.7674 23.2351 16.2732 23.5261 16.8419 23.5261C17.39 23.5261 17.8458 23.2876 18.2114 22.8124C18.576 22.3371 18.7595 21.5573 18.7595 20.4745C18.7595 19.3594 18.5631 18.5446 18.1691 18.025C17.7762 17.5088 17.2854 17.249 16.6955 17.249" fill="#0097EC"/>
<path d="M16.5 1.09375C7.95712 1.09375 1.03125 8.43937 1.03125 17.5C1.03125 26.5606 7.95712 33.9062 16.5 33.9062C25.0429 33.9062 31.9688 26.5606 31.9688 17.5C31.9688 8.43937 25.0429 1.09375 16.5 1.09375ZM20.2666 24.6597C19.339 25.719 18.1485 26.25 16.6954 26.25C15.1367 26.25 13.8543 25.5773 12.8504 24.2331C11.8465 22.8889 11.3438 20.6861 11.3438 17.623C11.3438 14.4818 11.8676 12.2172 12.9138 10.8309C13.96 9.44344 15.3187 8.75 16.9904 8.75C18.1624 8.75 19.1333 9.11422 19.9026 9.84266C20.6709 10.5722 21.1613 11.6309 21.3721 13.0162L18.5068 13.3678C18.4362 12.7132 18.2542 12.2292 17.9587 11.9186C17.6638 11.6069 17.2812 11.451 16.8104 11.451C16.185 11.451 15.6564 11.7627 15.2254 12.3856C14.7933 13.0096 14.5215 14.3073 14.4086 16.2799C15.146 15.312 16.0622 14.8285 17.1579 14.8285C18.3934 14.8285 19.453 15.3519 20.3332 16.3964C21.2159 17.4404 21.6562 18.7879 21.6562 20.4395C21.6562 22.1933 21.1932 23.5998 20.2666 24.6597Z" fill="#0097EC"/>
</svg>
