<?xml version="1.0" standalone="no"?>
<!DOCTYPE svg PUBLIC "-//W3C//DTD SVG 20010904//EN"
 "http://www.w3.org/TR/2001/REC-SVG-20010904/DTD/svg10.dtd">
<svg version="1.0" xmlns="http://www.w3.org/2000/svg"
 width="280.000000pt" height="400.000000pt" viewBox="0 0 280.000000 400.000000"
 preserveAspectRatio="xMidYMid meet">

<g transform="translate(0.000000,400.000000) scale(0.100000,-0.100000)"
fill="#000000" stroke="none">
<path d="M859 3141 c-77 -77 20 -207 109 -146 18 13 20 19 10 34 -9 15 -16 16
-39 8 -33 -13 -59 4 -59 38 0 35 26 51 60 38 26 -10 30 -9 36 10 4 14 1 25
-12 34 -30 22 -73 16 -105 -16z"/>
<path d="M1600 3150 c-14 -10 -22 -21 -19 -24 9 -10 70 15 66 27 -6 18 -21 17
-47 -3z"/>
<path d="M1780 3136 c0 -30 -2 -33 -25 -28 -35 6 -65 -23 -65 -63 0 -51 56
-85 88 -53 9 9 12 9 12 0 0 -7 9 -12 20 -12 19 0 20 7 20 95 0 95 0 95 -25 95
-22 0 -25 -4 -25 -34z m-2 -89 c4 -21 -27 -35 -38 -17 -12 19 0 42 19 38 9 -2
17 -11 19 -21z"/>
<path d="M1300 3136 c0 -14 -4 -26 -10 -26 -5 0 -10 -9 -10 -20 0 -11 5 -20
10 -20 6 0 10 -18 10 -40 0 -45 14 -56 55 -46 30 8 33 32 5 39 -12 3 -20 14
-20 26 0 14 6 21 20 21 13 0 20 7 20 20 0 14 -7 20 -21 20 -16 0 -20 5 -16 20
3 11 1 20 -3 20 -5 0 -15 3 -24 6 -12 5 -16 0 -16 -20z"/>
<path d="M1017 3092 c-38 -41 -10 -112 44 -112 30 0 43 9 58 38 33 62 -56 126
-102 74z m60 -38 c8 -21 -13 -42 -28 -27 -13 13 -5 43 11 43 6 0 13 -7 17 -16z"/>
<path d="M1158 3103 c-15 -4 -18 -16 -18 -64 0 -56 1 -59 24 -59 22 0 25 5 28
42 4 59 28 63 28 4 0 -43 2 -46 25 -46 25 0 26 2 23 56 -3 66 -23 88 -58 66
-12 -7 -20 -8 -20 -2 0 10 -3 11 -32 3z"/>
<path d="M1413 3095 c-31 -22 -32 -78 -1 -99 25 -18 65 -21 87 -7 21 14 5 28
-27 23 -16 -2 -33 1 -36 7 -5 7 6 11 33 11 49 0 59 14 34 48 -24 32 -60 39
-90 17z m52 -25 c3 -5 -3 -10 -15 -10 -12 0 -18 5 -15 10 3 6 10 10 15 10 5 0
12 -4 15 -10z"/>
<path d="M1536 3088 c-3 -13 -3 -40 1 -61 4 -28 11 -39 29 -43 14 -4 31 -1 39
6 10 9 15 9 15 1 0 -6 11 -11 25 -11 24 0 25 2 25 65 0 62 -1 65 -24 65 -22 0
-25 -5 -28 -42 -2 -30 -8 -43 -18 -43 -11 0 -15 11 -15 43 0 36 -3 42 -21 42
-14 0 -24 -8 -28 -22z"/>
<path d="M1867 3092 c-38 -41 -10 -112 44 -112 30 0 43 9 58 38 33 62 -56 126
-102 74z m60 -38 c8 -21 -13 -42 -28 -27 -13 13 -5 43 11 43 6 0 13 -7 17 -16z"/>
<path d="M1420 2040 c0 -33 4 -42 23 -49 16 -6 23 -5 25 6 3 12 16 14 62 11
68 -5 135 -47 127 -79 -10 -36 26 -31 66 9 l39 40 -157 51 c-87 28 -164 51
-171 51 -10 0 -14 -13 -14 -40z"/>
<path d="M1010 2030 c0 -10 5 -42 11 -70 9 -43 14 -50 34 -50 25 0 29 8 40 79
8 50 -1 61 -52 61 -26 0 -33 -4 -33 -20z"/>
<path d="M1025 1870 c-8 -13 13 -40 30 -40 15 0 28 27 19 41 -7 12 -41 11 -49
-1z"/>
<path d="M1395 1847 c-14 -31 -59 -34 -79 -5 -9 12 -16 17 -16 11 0 -39 69
-56 102 -26 17 15 21 15 57 -5 21 -12 46 -22 55 -22 18 0 56 34 56 51 0 6 -8
1 -18 -11 -24 -30 -70 -30 -94 0 -10 13 -21 20 -25 17 -3 -4 -11 -3 -17 3 -8
6 -15 2 -21 -13z"/>
<path d="M1304 1785 c-9 -23 3 -45 25 -45 23 0 35 28 20 46 -15 18 -38 18 -45
-1z"/>
<path d="M887 1689 c-4 -13 -7 -52 -7 -87 0 -55 2 -63 18 -60 10 2 18 14 20
31 4 29 11 34 29 16 13 -13 33 -4 33 14 -1 7 -20 34 -44 61 -41 47 -43 48 -49
25z"/>
<path d="M1348 1683 c6 -2 18 -2 25 0 6 3 1 5 -13 5 -14 0 -19 -2 -12 -5z"/>
<path d="M1099 1649 c-9 -17 -8 -23 2 -30 23 -15 29 -10 29 21 0 35 -14 39
-31 9z"/>
<path d="M967 1552 c-23 -25 -21 -58 3 -82 52 -52 116 13 80 81 -14 25 -61 25
-83 1z"/>
<path d="M1092 1558 c-17 -17 -15 -45 5 -52 24 -10 51 20 37 41 -14 22 -27 26
-42 11z"/>
<path d="M1170 1511 c0 -15 30 -41 46 -41 21 0 17 28 -5 40 -24 12 -41 13 -41
1z"/>
<path d="M1302 1398 c-37 -84 -46 -129 -29 -146 13 -12 23 -13 66 -2 28 7 53
16 56 21 3 4 -6 28 -21 51 -15 24 -33 61 -40 83 l-12 40 -20 -47z"/>
<path d="M1548 1273 c7 -3 16 -2 19 1 4 3 -2 6 -13 5 -11 0 -14 -3 -6 -6z"/>
<path d="M1488 1263 c6 -2 18 -2 25 0 6 3 1 5 -13 5 -14 0 -19 -2 -12 -5z"/>
<path d="M1426 1251 c-3 -4 6 -6 19 -3 14 2 25 6 25 8 0 8 -39 4 -44 -5z"/>
<path d="M1428 1173 c4 -20 6 -21 16 -9 6 8 20 16 31 18 13 3 7 6 -16 9 -33 4
-35 3 -31 -18z"/>
<path d="M1513 1193 c9 -2 23 -2 30 0 6 3 -1 5 -18 5 -16 0 -22 -2 -12 -5z"/>
<path d="M1500 1112 l-65 -17 -3 -42 c-2 -24 1 -43 7 -43 6 0 7 14 4 34 l-5
33 66 13 c36 8 67 19 70 27 6 15 9 16 -74 -5z"/>
<path d="M680 987 c0 -24 38 -64 70 -75 28 -10 30 -9 30 13 0 19 -11 30 -50
50 -37 19 -50 22 -50 12z"/>
<path d="M1165 977 c-8 -31 19 -97 40 -97 24 0 28 25 14 72 -16 50 -45 63 -54
25z"/>
<path d="M1027 983 c-14 -13 -6 -71 11 -94 27 -32 52 -19 52 26 0 20 -5 45
-10 56 -10 19 -40 26 -53 12z"/>
</g>
</svg>
