<svg width="33" height="35" viewBox="0 0 33 35" fill="none" xmlns="http://www.w3.org/2000/svg">
<path d="M19.8 12.25H23.1V22.75H19.8V12.25ZM33 17.5C33 27.125 25.575 35 16.5 35C7.425 35 0 27.125 0 17.5C0 7.875 7.425 0 16.5 0C25.575 0 33 7.875 33 17.5ZM13.2 8.75H6.6V12.25H9.9V26.25H13.2V8.75ZM26.4 12.25C26.4 11.3217 26.0523 10.4315 25.4334 9.77513C24.8146 9.11875 23.9752 8.75 23.1 8.75H19.8C17.985 8.75 16.5 10.325 16.5 12.25V22.75C16.5 23.6783 16.8477 24.5685 17.4665 25.2249C18.0854 25.8813 18.9248 26.25 19.8 26.25H23.1C24.9315 26.25 26.4 24.6925 26.4 22.75V12.25Z" fill="#15415A"/>
</svg>
