<svg width="33" height="35" viewBox="0 0 33 35" fill="none" xmlns="http://www.w3.org/2000/svg">
<path d="M16.5 0C7.3876 0 0 7.83533 0 17.5C0 27.1647 7.3876 35 16.5 35C25.6124 35 33 27.1647 33 17.5C33 7.83533 25.6124 0 16.5 0ZM20.829 24.3711C19.7653 26.012 18.2886 26.8333 16.3999 26.8333C14.8896 26.8333 13.6587 26.3719 12.7067 25.4503C11.7552 24.5274 11.1854 23.2878 10.9995 21.7315L14.1235 21.3634C14.2126 22.1678 14.4771 22.8037 14.9155 23.2727C15.3544 23.7434 15.8598 23.9779 16.4329 23.9779C17.0869 23.9779 17.6412 23.6746 18.0944 23.0697C18.5482 22.4659 18.7748 21.5542 18.7748 20.335C18.7748 19.1934 18.5499 18.3365 18.0994 17.766C17.6501 17.1949 17.0638 16.9091 16.3433 16.9091C15.4429 16.9091 14.6361 17.3623 13.9222 18.2671L11.3784 17.8477L12.9861 8.16667H21.2746V11.5039H15.3621L14.8709 14.6644C15.57 14.2666 16.2833 14.0677 17.0131 14.0677C18.403 14.0677 19.5827 14.6428 20.5496 15.7937C21.5165 16.9429 22 18.4363 22 20.2732C22 21.8033 21.6095 23.1706 20.829 24.3711" fill="#65C7FE"/>
</svg>
