<svg width="33" height="35" viewBox="0 0 33 35" fill="none" xmlns="http://www.w3.org/2000/svg">
<path d="M16.4892 18.1065C15.7544 18.1065 15.2068 18.3832 14.8469 18.9367C14.487 19.4901 14.3065 20.0889 14.3065 20.7364C14.3065 21.6399 14.519 22.3437 14.9433 22.8501C15.3672 23.3554 15.8972 23.6097 16.5314 23.6097C17.1517 23.6097 17.6648 23.3663 18.0716 22.8791C18.4779 22.3929 18.6811 21.6902 18.6811 20.7709C18.6811 19.9697 18.4753 19.3239 18.0613 18.8388C17.6483 18.3504 17.1239 18.1065 16.4892 18.1065" fill="#286B91"/>
<path d="M16.4463 15.4782C17.0177 15.4782 17.4735 15.2933 17.8153 14.9236C18.1577 14.554 18.3289 14.0415 18.3289 13.3875C18.3289 12.7722 18.1598 12.28 17.8215 11.9093C17.4822 11.5396 17.0352 11.3547 16.4788 11.3547C15.9013 11.3547 15.4409 11.5418 15.099 11.9153C14.7566 12.2893 14.5854 12.7837 14.5854 13.399C14.5854 14.0536 14.7546 14.5633 15.0939 14.9286C15.4321 15.2955 15.8828 15.4782 16.4463 15.4782" fill="#286B91"/>
<path d="M16.5 1.09375C7.95712 1.09375 1.03125 8.43937 1.03125 17.5C1.03125 26.5606 7.95712 33.9062 16.5 33.9062C25.0429 33.9062 31.9688 26.5606 31.9688 17.5C31.9688 8.43937 25.0429 1.09375 16.5 1.09375ZM20.2713 24.7663C19.3468 25.7556 18.1185 26.25 16.5856 26.25C15.1589 26.25 13.9719 25.8409 13.0231 25.0239C11.9037 24.057 11.3438 22.7336 11.3438 21.0503C11.3438 20.1245 11.5541 19.273 11.9749 18.4997C12.3961 17.7231 13.0597 17.1259 13.9652 16.7054C13.1871 16.3477 12.6225 15.8539 12.2693 15.2272C11.9156 14.601 11.7403 13.9136 11.7403 13.1666C11.7403 11.888 12.1481 10.8325 12.9644 9.99961C13.7811 9.16672 14.9423 8.75 16.4464 8.75C17.937 8.75 19.0946 9.16672 19.9181 9.99961C20.7415 10.8325 21.1535 11.888 21.1535 13.1666C21.1535 13.9601 20.9648 14.6672 20.5858 15.2868C20.2084 15.9042 19.6768 16.3784 18.992 16.7054C19.8624 17.0866 20.5239 17.6444 20.9767 18.3761C21.4299 19.1084 21.6562 19.9522 21.6562 20.9103C21.6562 22.4924 21.1942 23.7776 20.2713 24.7663" fill="#286B91"/>
</svg>
