<svg width="35" height="35" viewBox="0 0 35 35" fill="none" xmlns="http://www.w3.org/2000/svg">
<path d="M18.0234 12C17.4421 12 16.9609 12.2401 16.577 12.7186C16.1925 13.1982 16 13.9824 16 15.0729C16 16.1781 16.2095 16.9913 16.6267 17.5081C17.0434 18.026 17.5646 18.2847 18.1891 18.2847C18.7934 18.2847 19.3009 18.037 19.7155 17.5382C20.1289 17.0395 20.3362 16.3077 20.3362 15.3409C20.3362 14.281 20.101 13.4602 19.6367 12.8766C19.1719 12.2926 18.6332 12 18.0234 12" fill="#0F6EA4" fill-opacity="0.8"/>
<path d="M18.4062 2C9.34562 2 2 9.34562 2 18.4062C2 27.4669 9.34562 34.8125 18.4062 34.8125C27.4669 34.8125 34.8125 27.4669 34.8125 18.4062C34.8125 9.34562 27.4669 2 18.4062 2ZM22.2098 25.0765C21.1002 26.4617 19.6548 27.1562 17.8752 27.1562C16.5945 27.1562 15.5587 26.7997 14.769 26.0871C13.9793 25.3745 13.4734 24.3087 13.2503 22.8923L16.2882 22.5417C16.3631 23.1881 16.5573 23.6666 16.8701 23.9784C17.1829 24.2901 17.5963 24.4454 18.1104 24.4454C18.7579 24.4454 19.3097 24.1348 19.7636 23.5108C20.2175 22.8879 20.5068 21.5956 20.6342 19.6323C19.8451 20.5905 18.8591 21.069 17.6745 21.069C16.3855 21.069 15.2732 20.5489 14.3397 19.5104C13.4045 18.4702 12.9375 17.1173 12.9375 15.4509C12.9375 13.713 13.4297 12.3141 14.4179 11.2509C15.405 10.1873 16.6612 9.65625 18.1886 9.65625C19.8484 9.65625 21.2112 10.3284 22.2787 11.6709C23.3418 13.0157 23.875 15.2245 23.875 18.3007C23.875 21.4321 23.3194 23.6902 22.2098 25.0765Z" fill="#0F6EA4" fill-opacity="0.8"/>
</svg>
