<svg width="46" height="48" viewBox="0 0 46 48" fill="none" xmlns="http://www.w3.org/2000/svg">
<path d="M43.625 9H36.125V4.3125C36.125 2.24414 34.4434 0.5625 32.375 0.5625H13.625C11.5566 0.5625 9.875 2.24414 9.875 4.3125V9H2.375C1.33789 9 0.5 9.83789 0.5 10.875V12.75C0.5 13.0078 0.710937 13.2188 0.96875 13.2188H4.50781L5.95508 43.8633C6.04883 45.8613 7.70117 47.4375 9.69922 47.4375H36.3008C38.3047 47.4375 39.9512 45.8672 40.0449 43.8633L41.4922 13.2188H45.0312C45.2891 13.2188 45.5 13.0078 45.5 12.75V10.875C45.5 9.83789 44.6621 9 43.625 9ZM31.9062 9H14.0938V4.78125H31.9062V9Z" fill="white"/>
</svg>
