<svg width="20" height="20" viewBox="0 0 20 20" fill="none" xmlns="http://www.w3.org/2000/svg">
<path d="M10 0.400024C4.69802 0.400024 0.400024 4.69802 0.400024 10C0.40009 11.2607 0.648466 12.509 1.13097 13.6737C1.61348 14.8384 2.32066 15.8967 3.21215 16.7881C4.10364 17.6795 5.16197 18.3866 6.32673 18.869C7.49148 19.3513 8.73983 19.5996 10.0005 19.5995C11.2612 19.5995 12.5095 19.3511 13.6742 18.8686C14.8389 18.3861 15.8972 17.6789 16.7886 16.7874C17.68 15.8959 18.3871 14.8376 18.8695 13.6728C19.3518 12.5081 19.6001 11.2597 19.6 9.99902C19.6 4.69802 15.301 0.400024 10 0.400024ZM9.84902 15.599H9.79803C9.01603 15.576 8.46403 14.999 8.48703 14.228C8.50903 13.47 9.07402 12.919 9.83002 12.919L9.87603 12.921C10.68 12.944 11.226 13.515 11.203 14.308C11.18 15.068 10.625 15.599 9.84902 15.599V15.599ZM13.14 9.06802C12.956 9.32802 12.552 9.65402 12.042 10.051L11.48 10.438C11.172 10.678 10.986 10.905 10.917 11.126C10.861 11.3 10.835 11.347 10.83 11.702V11.792H8.68503L8.69102 11.61C8.71802 10.866 8.73602 10.426 9.04502 10.063C9.53002 9.49502 10.6 8.80502 10.645 8.77602C10.7918 8.66878 10.9199 8.53802 11.024 8.38902C11.249 8.07802 11.348 7.83402 11.348 7.59602C11.348 7.26202 11.25 6.95302 11.055 6.68002C10.867 6.41402 10.51 6.28202 9.99403 6.28202C9.48203 6.28202 9.13102 6.44402 8.92202 6.77802C8.70602 7.11902 8.59702 7.47802 8.59702 7.84502V7.93702H6.38602L6.39002 7.84102C6.44702 6.48802 6.93102 5.51302 7.82502 4.94402C8.38802 4.58302 9.08902 4.40002 9.90602 4.40002C10.974 4.40002 11.878 4.66002 12.588 5.17202C13.309 5.69102 13.674 6.46902 13.674 7.48302C13.673 8.05002 13.494 8.58302 13.14 9.06802V9.06802Z" fill="white"/>
</svg>
