<svg width="18" height="18" viewBox="0 0 18 18" fill="none" xmlns="http://www.w3.org/2000/svg">
<g opacity="0.3">
<path d="M15 13C15 13.5304 14.7893 14.0391 14.4142 14.4142C14.0391 14.7893 13.5304 15 13 15H2C1.46957 15 0.960859 14.7893 0.585786 14.4142C0.210714 14.0391 0 13.5304 0 13V2C0 1.46957 0.210714 0.960859 0.585786 0.585786C0.960859 0.210714 1.46957 0 2 0L13 0C13.5304 0 14.0391 0.210714 14.4142 0.585786C14.7893 0.960859 15 1.46957 15 2V13Z" fill="#D99E82"/>
<path d="M14 13C14 13.2652 13.8946 13.5196 13.7071 13.7071C13.5196 13.8946 13.2652 14 13 14H2C1.73478 14 1.48043 13.8946 1.29289 13.7071C1.10536 13.5196 1 13.2652 1 13V2C1 1.73478 1.10536 1.48043 1.29289 1.29289C1.48043 1.10536 1.73478 1 2 1H13C13.2652 1 13.5196 1.10536 13.7071 1.29289C13.8946 1.48043 14 1.73478 14 2V13Z" fill="#5C913B"/>
<path d="M3.75746 4.44899C3.71746 4.49699 3.66546 4.56899 3.66546 4.65299C3.66546 4.83699 3.80146 4.91699 3.97746 4.91699H5.31246C5.46446 4.91699 5.60046 4.83699 5.60046 4.65299C5.60046 4.46899 5.46496 4.38899 5.28846 4.38899H4.55696C4.89646 3.96149 5.51646 3.40999 5.51646 2.85399C5.51646 2.34649 5.12046 2.02249 4.62896 2.02249C4.13746 2.02249 3.68946 2.42599 3.68946 2.92999C3.68946 3.08549 3.78946 3.22149 3.98146 3.22149C4.36546 3.22149 4.14546 2.57399 4.60496 2.57399C4.76896 2.57399 4.89296 2.71799 4.89296 2.88199C4.89296 3.02599 4.82496 3.14999 4.75296 3.25399C4.44896 3.69349 4.08946 4.05349 3.75746 4.44899V4.44899ZM3.10396 7.16549H2.52446V6.58549C2.52446 6.44149 2.43246 6.34599 2.28446 6.34599C2.13696 6.34599 2.04496 6.44199 2.04496 6.58549V7.16549H1.46546C1.31746 7.16549 1.22546 7.26149 1.22546 7.40499C1.22546 7.54899 1.31746 7.64499 1.46546 7.64499H2.04496V8.22449C2.04496 8.36849 2.13696 8.46399 2.28446 8.46399C2.43246 8.46399 2.52446 8.36849 2.52446 8.22449V7.64499H3.10396C3.25196 7.64499 3.34396 7.54899 3.34396 7.40499C3.34396 7.26149 3.25196 7.16549 3.10396 7.16549V7.16549ZM5.28846 7.88899H4.55646C4.89646 7.46149 5.51596 6.90999 5.51596 6.35399C5.51596 5.84649 5.11996 5.52249 4.62846 5.52249C4.13696 5.52249 3.68896 5.92649 3.68896 6.42999C3.68896 6.58549 3.78896 6.72149 3.98046 6.72149C4.36446 6.72149 4.14446 6.07399 4.60446 6.07399C4.76846 6.07399 4.89246 6.21799 4.89246 6.38199C4.89246 6.52599 4.82446 6.64999 4.75246 6.75399C4.44846 7.19349 4.08896 7.55349 3.75696 7.94949C3.71696 7.99749 3.66496 8.06949 3.66496 8.15349C3.66496 8.33749 3.80096 8.41749 3.97696 8.41749H5.31196C5.46396 8.41749 5.59996 8.33749 5.59996 8.15349C5.59996 7.96899 5.46446 7.88899 5.28846 7.88899V7.88899ZM5.70846 9.48499H1.54146C1.47516 9.48499 1.41157 9.45865 1.36469 9.41177C1.3178 9.36488 1.29146 9.3013 1.29146 9.23499C1.29146 9.16869 1.3178 9.1051 1.36469 9.05822C1.41157 9.01133 1.47516 8.98499 1.54146 8.98499H5.70796C5.77427 8.98492 5.83788 9.0112 5.88481 9.05804C5.93174 9.10487 5.95815 9.16844 5.95821 9.23474C5.95828 9.30105 5.932 9.36466 5.88517 9.41159C5.83833 9.45852 5.77477 9.48492 5.70846 9.48499V9.48499Z" fill="white"/>
<path d="M18 18V17C18 16.2044 17.6839 15.4413 17.1213 14.8787C16.5587 14.3161 15.7956 14 15 14H7C6.20435 14 5.44129 14.3161 4.87868 14.8787C4.31607 15.4413 4 16.2044 4 17V18H18Z" fill="#CCD6DD"/>
<path d="M11.0365 15.4025C11.0365 15.4025 12.685 15.848 13.309 16.056C13.389 16.0825 12.8335 15.002 12.8335 15.002H9.10703C9.10703 15.002 8.76753 15.773 8.57153 16.1005C9.55153 15.7885 10.9705 15.358 10.9705 15.358" fill="#99AAB5"/>
<path d="M8.81995 14.0505C9.20695 14.3315 9.42295 14.8725 9.96995 15.006C10.1329 15.357 10.3429 15.8235 10.5309 16.244C10.7084 16.6415 11.2739 16.6355 11.4434 16.234C11.6209 15.814 11.8209 15.3505 11.9804 15.006C12.5329 14.783 12.7859 14.3365 13.1799 14.0505V12.145H8.81995V14.0505Z" fill="#AF7E57"/>
<path d="M8.81605 12.9865C9.42405 13.6735 10.1781 13.8595 10.9981 13.8595C11.8176 13.8595 12.5711 13.673 13.1796 12.9865V11.241H8.81555V12.9865H8.81605Z" fill="#9B6A49"/>
<path d="M12.8655 1.66149C11.903 1.34999 9.63798 1.43499 9.07148 2.17099C7.59948 2.19949 5.87248 3.52999 5.64598 5.28499C5.42198 7.02249 5.92148 7.82899 6.09898 9.13549C6.30048 10.6155 7.13248 11.089 7.79748 11.287C8.75448 12.5515 9.77198 12.4975 11.4805 12.4975C14.8165 12.4975 16.4055 10.2655 16.546 6.47399C16.631 4.18149 15.2855 2.44449 12.8655 1.66149V1.66149Z" fill="#60352A"/>
<path d="M14.7734 6.6365C14.4504 6.1895 14.0374 5.8295 13.1314 5.7025C13.4714 5.858 13.7969 6.396 13.8394 6.6935C13.8819 6.991 13.9244 7.2315 13.6554 6.934C12.5779 5.743 11.4044 6.212 10.2419 5.4845C9.42995 4.9765 9.18245 4.414 9.18245 4.414C9.18245 4.414 9.08345 5.164 7.85195 5.9285C7.49495 6.15 7.06895 6.6435 6.83295 7.3725C6.66295 7.8965 6.71595 8.3635 6.71595 9.1615C6.71595 11.4915 8.63645 13.4505 11.0049 13.4505C13.3734 13.4505 15.2939 11.474 15.2939 9.1615C15.2929 7.7125 15.1414 7.146 14.7734 6.6365V6.6365Z" fill="#AF7E57"/>
<path d="M11.4804 10.3535H10.5274C10.4642 10.3535 10.4035 10.3284 10.3588 10.2836C10.3141 10.2389 10.2889 10.1782 10.2889 10.115C10.2889 10.0517 10.3141 9.99108 10.3588 9.94635C10.4035 9.90162 10.4642 9.8765 10.5274 9.8765H11.4804C11.5437 9.8765 11.6044 9.90162 11.6491 9.94635C11.6938 9.99108 11.7189 10.0517 11.7189 10.115C11.7189 10.1782 11.6938 10.2389 11.6491 10.2836C11.6044 10.3284 11.5437 10.3535 11.4804 10.3535V10.3535Z" fill="#915A34"/>
<path d="M9.09747 8.68499C8.9711 8.68499 8.8499 8.63479 8.76054 8.54543C8.67117 8.45607 8.62097 8.33487 8.62097 8.20849V7.73199C8.62097 7.60562 8.67117 7.48442 8.76054 7.39506C8.8499 7.3057 8.9711 7.25549 9.09747 7.25549C9.22385 7.25549 9.34505 7.3057 9.43441 7.39506C9.52377 7.48442 9.57397 7.60562 9.57397 7.73199V8.20849C9.57404 8.27109 9.56176 8.33308 9.53783 8.39092C9.51391 8.44876 9.47881 8.50132 9.43455 8.54558C9.39029 8.58984 9.33774 8.62493 9.2799 8.64886C9.22206 8.67278 9.16006 8.68506 9.09747 8.68499ZM12.9105 8.68499C12.7841 8.68499 12.6629 8.63479 12.5735 8.54543C12.4842 8.45607 12.434 8.33487 12.434 8.20849V7.73199C12.434 7.60562 12.4842 7.48442 12.5735 7.39506C12.6629 7.3057 12.7841 7.25549 12.9105 7.25549C13.0368 7.25549 13.158 7.3057 13.2474 7.39506C13.3368 7.48442 13.387 7.60562 13.387 7.73199V8.20849C13.387 8.33487 13.3368 8.45607 13.2474 8.54543C13.158 8.63479 13.0368 8.68499 12.9105 8.68499V8.68499Z" fill="#662113"/>
<path d="M11.067 12.343C9.68998 12.343 9.26698 11.9905 9.19648 11.919C9.16529 11.8894 9.14024 11.8539 9.12276 11.8146C9.10528 11.7753 9.09571 11.733 9.09459 11.69C9.09234 11.6032 9.12468 11.519 9.18448 11.456C9.24429 11.393 9.32667 11.3564 9.4135 11.3541C9.50033 11.3519 9.58449 11.3842 9.64748 11.444C9.67348 11.4625 10.008 11.6875 11.067 11.6875C12.167 11.6875 12.485 11.445 12.488 11.4425C12.5182 11.4125 12.5541 11.3889 12.5936 11.3731C12.633 11.3572 12.6753 11.3494 12.7178 11.3501C12.7603 11.3508 12.8023 11.36 12.8412 11.3771C12.8802 11.3943 12.9153 11.4191 12.9445 11.45C13.0051 11.5135 13.0383 11.5982 13.037 11.6859C13.0357 11.7737 12.9999 11.8574 12.9375 11.919C12.8665 11.9905 12.444 12.343 11.067 12.343Z" fill="#915A34"/>
<path d="M8.61445 13.3145C8.89695 13.5975 9.96945 15.006 9.96945 15.006C9.96945 15.006 9.37545 15.3535 8.66545 16.008C8.40745 16.246 7.99045 16.0355 8.02195 15.686C8.08245 15.0115 8.14645 14.2315 8.13445 13.919C8.12895 13.7675 8.47945 13.1785 8.61445 13.3145V13.3145ZM13.331 13.3145C13.0485 13.5975 11.9759 15.006 11.9759 15.006C11.9759 15.006 12.5699 15.3535 13.2799 16.008C13.5379 16.246 13.9549 16.0355 13.9234 15.686C13.8629 15.0115 13.7989 14.2315 13.8109 13.919C13.8169 13.7675 13.4665 13.1785 13.331 13.3145" fill="#F5F8FA"/>
</g>
</svg>
