<svg width="16" height="16" viewBox="0 0 16 16" fill="none" xmlns="http://www.w3.org/2000/svg">
<path d="M13.468 12.37C12.758 11.226 11.195 10 7.99998 10C4.80498 10 3.24298 11.225 2.53198 12.37C3.18706 13.1912 4.0189 13.8542 4.96559 14.3095C5.91229 14.7649 6.94947 15.0009 7.99998 15C9.05049 15.0009 10.0877 14.7649 11.0344 14.3095C11.9811 13.8542 12.8129 13.1912 13.468 12.37V12.37Z" fill="white"/>
<path fill-rule="evenodd" clip-rule="evenodd" d="M8 9C8.79565 9 9.55871 8.68393 10.1213 8.12132C10.6839 7.55871 11 6.79565 11 6C11 5.20435 10.6839 4.44129 10.1213 3.87868C9.55871 3.31607 8.79565 3 8 3C7.20435 3 6.44129 3.31607 5.87868 3.87868C5.31607 4.44129 5 5.20435 5 6C5 6.79565 5.31607 7.55871 5.87868 8.12132C6.44129 8.68393 7.20435 9 8 9V9Z" fill="white"/>
<path fill-rule="evenodd" clip-rule="evenodd" d="M8 1C6.14348 1 4.36301 1.7375 3.05025 3.05025C1.7375 4.36301 1 6.14348 1 8C1 9.85652 1.7375 11.637 3.05025 12.9497C4.36301 14.2625 6.14348 15 8 15C9.85652 15 11.637 14.2625 12.9497 12.9497C14.2625 11.637 15 9.85652 15 8C15 6.14348 14.2625 4.36301 12.9497 3.05025C11.637 1.7375 9.85652 1 8 1V1ZM0 8C0 5.87827 0.842855 3.84344 2.34315 2.34315C3.84344 0.842855 5.87827 0 8 0C10.1217 0 12.1566 0.842855 13.6569 2.34315C15.1571 3.84344 16 5.87827 16 8C16 10.1217 15.1571 12.1566 13.6569 13.6569C12.1566 15.1571 10.1217 16 8 16C5.87827 16 3.84344 15.1571 2.34315 13.6569C0.842855 12.1566 0 10.1217 0 8V8Z" fill="white"/>
</svg>
