<svg width="17.5" height="17.5" viewBox="0 0 18 18" fill="none" xmlns="http://www.w3.org/2000/svg">
<path d="M17.3 14.605L10.355 1.825C10.2168 1.5703 10.0123 1.35763 9.76328 1.20944C9.51423 1.06125 9.2298 0.983032 8.94 0.983032C8.6502 0.983032 8.36577 1.06125 8.11673 1.20944C7.86768 1.35763 7.66325 1.5703 7.525 1.825L0.585003 14.605C0.447764 14.8507 0.377344 15.1282 0.380765 15.4096C0.384185 15.691 0.461326 15.9667 0.604496 16.209C0.747666 16.4513 0.951862 16.6519 1.19672 16.7907C1.44158 16.9295 1.71855 17.0016 2 17H15.885C16.1636 16.9997 16.4373 16.9271 16.6795 16.7894C16.9216 16.6516 17.1239 16.4534 17.2665 16.2141C17.4091 15.9747 17.4871 15.7025 17.493 15.4239C17.4989 15.1454 17.4324 14.8701 17.3 14.625V14.605ZM8.3 5C8.3 4.81435 8.37375 4.6363 8.50503 4.50502C8.6363 4.37375 8.81435 4.3 9 4.3C9.18565 4.3 9.3637 4.37375 9.49498 4.50502C9.62625 4.6363 9.7 4.81435 9.7 5V11C9.7 11.1857 9.62625 11.3637 9.49498 11.495C9.3637 11.6262 9.18565 11.7 9 11.7C8.81435 11.7 8.6363 11.6262 8.50503 11.495C8.37375 11.3637 8.3 11.1857 8.3 11V5ZM9 14.925C8.822 14.925 8.64799 14.8722 8.49999 14.7733C8.35199 14.6744 8.23663 14.5339 8.16851 14.3694C8.10039 14.205 8.08257 14.024 8.1173 13.8494C8.15202 13.6748 8.23774 13.5145 8.36361 13.3886C8.48947 13.2627 8.64984 13.177 8.82442 13.1423C8.999 13.1076 9.17996 13.1254 9.34442 13.1935C9.50887 13.2616 9.64943 13.377 9.74833 13.525C9.84722 13.673 9.9 13.847 9.9 14.025C9.9 14.1432 9.87672 14.2602 9.83149 14.3694C9.78627 14.4786 9.71997 14.5778 9.6364 14.6614C9.55283 14.745 9.45361 14.8113 9.34442 14.8565C9.23522 14.9017 9.11819 14.925 9 14.925V14.925Z" fill="#E21818"/>
</svg>